# xmcd
#
# Track frame offsets: 
#        150
#        20807
#        37867
#        55226
#        77611
#        98019
#        115947
#        133975
#        135416
#        144540
#        161990
#        175734
#        199392
#        217644
#
# Disc length: 3126 seconds
#
# Revision: 0
# Processed by: cddbd v1.4PL0 Copyright (c) Steve Scherf et al.
# Submitted via: ExactAudioCopy v0.90b4
#
DISCID=c10c340e
DTITLE=Boney Fields - Red Wolf
DYEAR=2002
DGENRE=Funk
TTITLE0=Red Wolf
TTITLE1=Another Place In The Blues
TTITLE2=Jump To The Blues
TTITLE3=I Gave The Blues To Myself
TTITLE4=Boogie Thing
TTITLE5=Thank You Baby
TTITLE6=Live In Peace
TTITLE7=Making It Funky (Intro)
TTITLE8=Making It Funky
TTITLE9=Hello Brother
TTITLE10=Late Comer
TTITLE11=Young Boy Playing The Blues
TTITLE12=Wake Up
TTITLE13=Bonus Track
EXTD=
EXTT0=
EXTT1=
EXTT2=
EXTT3=
EXTT4=
EXTT5=
EXTT6=
EXTT7=
EXTT8=
EXTT9=
EXTT10=
EXTT11=
EXTT12=
EXTT13=
PLAYORDER=
